<?xml version="1.0" standalone="no"?>
<!DOCTYPE svg PUBLIC "-//W3C//DTD SVG 20010904//EN"
 "http://www.w3.org/TR/2001/REC-SVG-20010904/DTD/svg10.dtd">
<svg version="1.0" xmlns="http://www.w3.org/2000/svg"
 width="148.000000pt" height="66.000000pt" viewBox="0 0 148.000000 66.000000"
 preserveAspectRatio="xMidYMid meet">
<metadata>
Created by potrace 1.10, written by Peter Selinger 2001-2011
</metadata>
<g transform="translate(0.000000,66.000000) scale(0.100000,-0.100000)"
fill="#000000" stroke="none">
<path d="M710 605 c-32 -34 -99 -65 -141 -65 -20 0 -78 10 -130 21 -141 32
-236 36 -292 11 -61 -27 -80 -59 -80 -133 1 -50 -3 -65 -24 -89 l-24 -29 19
-28 c11 -15 23 -52 26 -81 9 -75 21 -99 58 -122 42 -25 154 -27 283 -4 137 24
238 9 306 -46 l25 -21 51 34 c68 46 146 54 290 31 58 -9 140 -14 183 -12 71 3
82 6 109 32 22 21 32 42 37 75 10 76 24 120 40 129 14 8 13 13 -10 35 -22 22
-26 35 -26 88 0 149 -101 188 -348 135 -67 -14 -137 -26 -155 -26 -41 1 -105
30 -136 64 -30 32 -32 32 -61 1z m153 -84 c50 -14 120 -6 237 27 77 21 187 21
227 -1 44 -23 56 -50 55 -118 -1 -43 4 -64 18 -82 18 -22 18 -28 5 -63 -8 -22
-17 -60 -20 -86 -3 -26 -14 -57 -24 -69 -22 -28 -91 -38 -186 -27 -39 4 -127
11 -196 14 -133 7 -162 0 -215 -48 -22 -19 -22 -19 -69 14 -44 31 -53 33 -143
37 -53 1 -129 -2 -169 -9 -91 -14 -225 -15 -251 -1 -23 12 -38 50 -46 115 -3
27 -13 60 -21 72 -13 20 -12 24 5 39 16 15 20 31 20 84 0 87 14 111 75 134 56
22 105 18 285 -23 58 -13 110 -19 133 -15 47 7 105 35 130 63 l19 21 42 -33
c24 -18 64 -38 89 -45z"/>
<path d="M594 409 c-14 -15 -16 -24 -8 -37 16 -25 57 -26 79 -2 21 23 10 27
-15 5 -21 -19 -52 -9 -48 14 3 13 15 16 62 14 32 -1 61 -4 63 -7 11 -10 -43
-65 -64 -65 -12 -1 -25 -6 -29 -12 -4 -8 1 -9 17 -4 21 7 20 4 -11 -31 -29
-33 -40 -39 -75 -39 -29 0 -40 -4 -40 -15 0 -12 16 -15 90 -13 201 4 216 5
226 25 13 25 42 24 34 -1 -9 -30 9 -32 48 -5 42 28 43 30 23 50 -17 16 -42 18
-51 4 -3 -5 -10 -10 -16 -10 -5 0 11 19 36 43 46 45 60 81 28 75 -10 -2 -37
-32 -60 -68 -42 -63 -81 -105 -91 -96 -2 3 6 19 18 35 l21 31 -31 0 c-24 0
-41 -9 -64 -35 -27 -29 -39 -35 -74 -35 -23 0 -42 5 -42 10 0 6 4 10 9 10 5 0
19 16 32 35 15 22 32 35 46 35 12 0 25 5 29 11 4 8 -1 9 -17 4 -23 -7 -23 -6
5 24 17 17 39 31 51 31 12 0 30 6 41 14 18 14 18 15 0 22 -11 4 -29 1 -45 -8
-23 -14 -32 -14 -71 -2 -62 19 -84 17 -106 -7z m316 -72 c-19 -18 -27 -23 -20
-12 27 38 43 55 49 50 3 -3 -10 -20 -29 -38z m-110 -54 c0 -10 -42 -53 -52
-53 -17 0 -7 29 14 44 24 17 38 20 38 9z m140 -12 c0 -3 -12 -14 -25 -24 -24
-17 -25 -17 -25 1 0 23 19 42 36 35 8 -3 14 -8 14 -12z m-373 -47 c-3 -3 -12
-4 -19 -1 -8 3 -5 6 6 6 11 1 17 -2 13 -5z"/>
</g>
</svg>
